<svg viewBox="0 0 167 26" xmlns="http://www.w3.org/2000/svg" xml:space="preserve"><path d="M160.998 7.454c1.77 0 3.135.167 4.096.501.961.334 1.441.894 1.441 1.679 0 .832-.334 1.676-1.002 2.531-2.531-1.113-4.47-1.67-5.818-1.67-.715 0-1.245.135-1.591.404-.346.27-.519.657-.519 1.161 0 .527.232.984.695 1.371.463.386 1.532.879 3.208 1.476 1.957.668 3.348 1.401 4.175 2.197.826.797 1.239 1.846 1.239 3.147 0 1.758-.718 3.105-2.153 4.043-1.436.937-3.378 1.406-5.828 1.406-2.261 0-3.873-.155-4.834-.466-.961-.31-1.447-.952-1.459-1.924 0-.727.288-1.442.862-2.145 2.332.996 4.4 1.494 6.205 1.494.738 0 1.312-.123 1.723-.369.41-.246.615-.656.615-1.23 0-.668-.361-1.202-1.081-1.6-.721-.398-1.878-.902-3.472-1.512-1.711-.656-2.933-1.362-3.665-2.118-.732-.756-1.099-1.726-1.099-2.909 0-1.664.73-2.991 2.189-3.982 1.459-.99 3.483-1.485 6.073-1.485ZM51.75 17.579c0 2.332.085 3.776.255 4.333.17.557.6.806 1.292.747.164.387.246.756.246 1.108 0 .574-.428 1.01-1.283 1.309-.856.299-1.641.448-2.356.448-.55 0-.937-.085-1.16-.254-.223-.17-.568-.595-1.037-1.275-1.09.551-2.136.973-3.138 1.266a11.377 11.377 0 0 1-3.208.439c-1.5 0-2.677-.395-3.533-1.186-.855-.791-1.283-2.4-1.283-4.826 0-3.621-.021-5.856-.062-6.706-.041-.849-.131-1.47-.272-1.863-.141-.392-.328-.639-.563-.738-.234-.1-.574-.15-1.019-.15a2.065 2.065 0 0 1-.317-1.142c0-.539.329-.914.985-1.125.656-.211 1.693-.317 3.111-.317 1.02 0 1.74.062 2.162.185.422.123.683.308.783.554.099.246.149 1.072.149 2.478v6.258c0 2.285.217 3.779.65 4.482.434.704 1.049 1.055 1.846 1.055.598 0 1.148-.132 1.652-.395.504-.264.821-.61.95-1.037.129-.428.193-1.199.193-2.312 0-3.105-.006-5.08-.018-5.924-.011-.844-.076-1.465-.193-1.863-.117-.399-.267-.648-.448-.747-.182-.1-.495-.15-.941-.15a2.065 2.065 0 0 1-.316-1.142c0-.539.331-.914.993-1.125.662-.211 1.591-.317 2.786-.317 1.02 0 1.74.062 2.162.185.422.123.683.334.783.633.099.299.149 1.157.149 2.575v6.539Zm65.18-16.225c.211.434.316.868.316 1.301 0 .422-.076.712-.228.87-.153.159-.399.238-.739.238h-.843c-.657 2.496-1.594 6.316-2.813 11.461-1.219 5.144-2.086 8.173-2.602 9.088-.515.914-1.652 1.371-3.41 1.371-2.074 0-3.214-.065-3.419-.194-.205-.129-.773-3.032-1.705-8.71-.931-5.677-1.426-8.516-1.485-8.516-.059 0-.53 2.446-1.415 7.339-.885 4.892-1.585 7.795-2.101 8.71-.515.914-1.652 1.371-3.41 1.371-1.863 0-2.894-.065-3.094-.194-.199-.129-.975-3.149-2.329-9.061C86.3 10.516 85.219 6.294 84.41 3.763h-1.476a4.082 4.082 0 0 1-.299-1.477c0-.328.088-.565.263-.712.176-.146.434-.22.774-.22h8.736a3.1 3.1 0 0 1 .299 1.301c0 .422-.076.712-.228.87-.153.159-.399.238-.739.238h-.861c.129 1.5.633 4.684 1.512 9.553.879 4.87 1.429 7.304 1.652 7.304.223 0 .879-3.146 1.969-9.439s1.731-9.504 1.925-9.633c.193-.129 1.538-.194 4.034-.194.879 0 1.485.173 1.819.519.334.346 1.022 3.557 2.065 9.633 1.043 6.076 1.673 9.114 1.89 9.114.217 0 .73-2.408 1.538-7.224.809-4.817 1.254-8.028 1.336-9.633h-1.476c-.211-.516-.317-1.008-.317-1.477 0-.328.088-.565.264-.712.176-.146.433-.22.773-.22h7.067Zm-51.926 6.1c2.437 0 4.207.554 5.308 1.661 1.102 1.108 1.653 2.857 1.653 5.247 0 1.184-.235 2.028-.703 2.532-.469.503-1.494.755-3.076.755h-6.54c.036 1.536.381 2.74 1.038 3.613.656.873 1.81 1.309 3.462 1.309 1.618 0 3.282-.468 4.993-1.406.609.598.914 1.242.914 1.934 0 .937-.689 1.59-2.066 1.96-1.377.369-2.991.553-4.842.553-3.188 0-5.502-.644-6.944-1.933-1.441-1.289-2.162-3.416-2.162-6.381 0-3.082.812-5.493 2.435-7.234 1.623-1.74 3.799-2.61 6.53-2.61ZM9.51 1.354c3.551 0 6.19.463 7.919 1.389 1.728.926 2.592 2.332 2.592 4.219 0 2.601-1.628 4.576-4.886 5.924 4.066.761 6.099 2.613 6.099 5.554 0 2.004-.922 3.657-2.768 4.957-1.846 1.301-5.077 1.952-9.695 1.952l-8.455.017A3.93 3.93 0 0 1 0 23.872c0-.316.088-.548.264-.694.175-.147.433-.22.773-.22H2.32c.071-1.512.106-4.84.106-9.984 0-4.641-.035-7.711-.106-9.211H.316C.105 3.247 0 2.755 0 2.286c0-.328.088-.565.264-.712.175-.146.433-.22.773-.22H9.51ZM128.021 22.94c.2.387.299.821.299 1.301 0 .41-.085.697-.255.862-.169.164-.501.246-.993.246h-8.437c-.199-.493-.299-.955-.299-1.389 0-.363.082-.624.246-.782.164-.158.428-.238.791-.238h1.441c.059-1.5.088-3.099.088-4.798 0-2.59-.02-4.31-.061-5.16-.041-.849-.132-1.47-.273-1.863-.14-.392-.357-.639-.65-.738-.293-.1-.721-.15-1.283-.15a2.159 2.159 0 0 1-.299-1.142c0-.656.269-1.061.809-1.213.539-.152 1.634-.229 3.287-.229 1.242 0 2.089.047 2.54.141.451.094.709.278.773.554.065.275.097.659.097 1.151v8.649c.012 1.699.047 3.298.105 4.798h2.074ZM25.875 16.876c0-5.32-.023-8.66-.07-10.02-.047-1.359-.135-2.288-.264-2.786-.129-.498-.354-.82-.677-.966-.322-.147-.741-.22-1.257-.22a3.561 3.561 0 0 1-.316-1.442c0-.492.185-.805.554-.94C24.214.367 25.395.3 27.387.3c1.242 0 2.092.05 2.549.149.457.1.717.284.782.554.064.269.096.65.096 1.143v13.517c0 3.352.03 5.777.088 7.277h2.25c.2.387.299.821.299 1.301 0 .41-.085.697-.255.862-.17.164-.501.246-.993.246h-8.596c-.211-.493-.316-.955-.316-1.389 0-.363.082-.624.246-.782.164-.158.428-.238.791-.238h1.442c.07-1.5.105-3.521.105-6.064Zm110.637-7.207c1.277-.797 2.505-1.362 3.682-1.696 1.178-.334 2.165-.501 2.962-.501 1.653 0 2.88.363 3.683 1.09.803.726 1.204 2.191 1.204 4.394 0 5.766.105 8.874.316 9.325.211.451.668.671 1.371.659.176.422.264.862.264 1.319 0 .422-.138.709-.413.861-.275.152-.8.229-1.573.229-1.899 0-3.1-.03-3.604-.088-.504-.059-.849-.249-1.037-.572-.187-.322-.281-.864-.281-1.626v-6.205c0-2.39-.22-3.993-.659-4.807-.44-.815-1.152-1.222-2.136-1.222-.832 0-1.488.243-1.969.73-.48.486-.72 1.503-.72 3.049v3.534c0 1.476.029 3.076.087 4.798h2.092c.199.387.299.821.299 1.301 0 .41-.085.697-.255.862-.17.164-.501.246-.993.246h-8.279c-.211-.493-.317-.955-.317-1.389 0-.363.082-.624.246-.782.164-.158.428-.238.791-.238h1.284c.058-1.933.088-3.931.088-5.994 0-3.281-.156-5.22-.466-5.818-.311-.598-.853-.897-1.626-.897a3.397 3.397 0 0 1-.317-1.406c0-.422.156-.697.466-.826.311-.129 2.247-.246 5.81-.352.058.493.058 1.166 0 2.022ZM7.857 18.687c0 1.347.159 2.232.475 2.654.316.422 1.184.633 2.602.633 1.476 0 2.551-.273 3.225-.818.674-.545 1.011-1.438 1.011-2.68 0-1.336-.407-2.35-1.222-3.041-.814-.692-2.071-1.038-3.77-1.038-.75 0-1.524.059-2.321.176v4.114Zm56.444-8.192c-.867 0-1.53.352-1.987 1.055-.457.703-.691 1.928-.703 3.674h.932c1.301 0 2.294-.038 2.979-.115.686-.076 1.087-.205 1.205-.386.117-.182.175-.484.175-.906 0-1.054-.228-1.872-.685-2.452-.457-.58-1.096-.87-1.916-.87Zm-56.444.861c.586.118 1.301.176 2.145.176 1.406 0 2.417-.261 3.032-.782.615-.521.923-1.345.923-2.47 0-1.218-.328-2.115-.984-2.689-.657-.574-1.647-.862-2.971-.862-.691 0-1.4.059-2.127.176a734.714 734.714 0 0 0-.018 6.451ZM122.73 5.362c-1.054 0-1.816-.202-2.285-.606-.468-.404-.703-.976-.703-1.714 0-.773.299-1.409.897-1.907.597-.498 1.447-.747 2.548-.747 1.125 0 1.922.214 2.391.641.469.428.703.988.703 1.679 0 .762-.281 1.395-.844 1.898-.562.504-1.464.756-2.707.756Z" fill="#fff"/></svg>
