<svg viewBox="0 0 32 40" xmlns="http://www.w3.org/2000/svg" xml:space="preserve"><path d="M31.487 27.105a10.302 10.302 0 0 0-3.466-5.834c-1.611-1.071-3.992-2.043-4.41-2.053-.32-.009-1.872-.562-3.151-1.053 2.043 2.162 4.191 5.028 4.273 7.527.055.031.09.06.103.086.217.439.85 1.21 1.194 1.567-.123-.068-1.002-.134-1.127-.202.268.438.42 1.013.609 1.489.911 2.299-.385 4.783-1.607 5.721-.208.159-5.021 1.67-5.021 1.67-.283.073-.587.085-.872.136-.483.089-2.923.188-2.98.182-.605-.05-1.213-.034-1.819-.03-.785.004-2.564-1.026-2.927-1.123-.39-.106-1.155-.176-1.535-.315-.659-.239-1.227-1.033-1.879-1.289-.211-.082-2.641-1.77-3.101-2.389-.407-.547-1.738-2.865-1.782-2.921-.046-.054-.742-1.464-.78-1.383C.602 28.203-.006 31.032.04 31.58c.01.137-.051.772-.038.854.07.463.311 1.786.321 1.919.01.165.14 1.274.294 1.369a.304.304 0 0 0 .084-.03c.028 0 1.982 1.145 2.074 1.256.026.018.049.036.075.053.301.232 4.198 1.997 6.271 2.332.254.042.516.081.782.115.63.082 1.319.162 2.047.235l.022.002.081.007a51.42 51.42 0 0 0 2.728.199c.381.035.763.067 1.145.09 1.817.114 3.697-.302 5.449-.791 1.199-.224 3.1-.587 4.182-1.137a1.63 1.63 0 0 0 .458-.305c.131-.136 2.462-1.4 2.565-1.558.264-.409.333-.686.659-1.052 2.448-2.752 1.99-3.048 2.245-4.23a9.247 9.247 0 0 0 .003-3.803Zm-12.71-10.219c.061-.676.116-1.364.111-1.535-.026-.92-.041-6.995-.287-7.304l.158-1.845.011-.015c.026-.045-.006-.111-.066-.161-.425-.352-4.315-.401-5.408-.106-.037 2.221-.247 6.7-.25 7.828 0 .072.001.129.003.172.014-.063.019.656.027 1.722.012 1.592.029 3.959.086 5.657.016.457.034.867.056 1.199l.005.077c.178 2.451 1.051 4.83 1.543 7.238l.747 3.602.196.963c.083-.332.163-.666.246-.999.096-.544-.029-.292-.127-.087.299-.704 1.06-4.414 1.126-5.045.046-.438.385-1.892.762-3.607.113-.522.232-1.067.347-1.617.352-1.688.671-3.406.748-4.542.008-.116-.157-.262-.17-.147.011-.099.046-.452.086-.885.016-.179.034-.37.05-.563ZM2.548 15.085c-.033.013-.061.12-.013.173.41.449.876.848 1.359 1.225 2.043 1.593 4.406 3.53 6.918 4.271.036.01.073.022.109.031-1.637-1.697-4.272-4.93-4.619-7.886l-.294-2.194c-.002-.081.084-.107.246-.085a4.339 4.339 0 0 1-.112-.333l.064.279c-.656-1.166-.133-2.707.731-3.738.244-.289.629-.837.657-.867.698-.747 1.137-1.036 2.027-1.457 1.956-.924 4.185-1.331 6.356-1.223 1.106.055 2.2-.12 3.291.068.889.152 1.782.307 2.638.586 1.289.421 2.825 1.479 3.968 2.192 1.244.778 2.336 2.614 2.914 4.564.073-.175.53-1.383.575-1.568.056-.238.149-1.983.104-2.185-.137-.603-.468-1.228-.423-1.842.026-.351.04-1.43.072-1.78.03-.328-1.353-.549-1.723-.736-1.232-.627-1.324-1.11-2.724-1.26-.056-.006-.212-.073-.318-.086-.408-.047-2.239-.683-2.428-.697C19.37.348 16.945-.46 14.421.363c-.033-.065-.069-.13-.103-.195a2.81 2.81 0 0 1-1.311.075c-.1-.018-.202-.043-.304-.032-.082.008-.159.038-.234.066-.313.119-.626.236-.939.356a.072.072 0 0 0-.001-.064c-.041-.069-.135-.08-.215-.083-.73-.029-1.464.413-2.17.593.101-.006.201-.014.301-.021-.258.119-2.87.799-2.913.754l.137.146c-1.279.513-2.601 1.709-3.561 2.666l-.73.73c-.47.47-.581.945-.942 1.498C.535 8.236.437 9.601.534 11.233c.876.819.549 2.89 2.014 3.852Z" fill="#fff"/></svg>
