<svg viewBox="0 0 18 13" xmlns="http://www.w3.org/2000/svg" xml:space="preserve"><path d="M6.82 8.122c-.414.076-.834.159-.936.189-.548.161-4.191 1.145-4.342 1.323l-1.128.214-.011-.003c-.031-.007-.066.021-.087.06-.152.277.359 2.304.688 2.824 1.337-.338 4.054-.949 4.731-1.129a1.81 1.81 0 0 0 .102-.029c-.039.003.391-.115 1.03-.291.953-.262 2.371-.651 3.381-.954l.757-.237c1.446-.486 2.751-1.321 4.128-1.963l2.056-.967.551-.257-.633.033c-.34.038-.171.062-.035.08-.464-.042-2.795.159-3.183.226-.269.047-1.188.105-2.27.185-.328.025-.672.051-1.018.08-1.062.088-2.137.199-2.829.341-.07.015-.135.124-.064.112l-.888.163ZM7.601 2c-.396-.14-.801-.279-.905-.304C6.141 1.562 2.494.593 2.275.671L1.19.292 1.182.284c-.023-.021-.067-.015-.105.009C.807.457.236 2.468.261 3.082c1.327.377 3.985 1.206 4.661 1.388.043.012.078.02.104.026-.036-.017.396.096 1.037.263.956.25 2.379.622 3.405.865l.774.173c1.495.302 3.044.231 4.556.363l2.265.191.605.053-.565-.288c-.313-.137-.179-.032-.07.052-.38-.268-2.5-1.26-2.869-1.396-.257-.094-1.082-.503-2.059-.975-.297-.142-.607-.291-.921-.439-.964-.454-1.95-.896-2.621-1.119-.068-.023-.179.039-.112.064L7.601 2Z" fill="#fff"/></svg>
