<svg viewBox="0 0 167 26" xmlns="http://www.w3.org/2000/svg" xml:space="preserve"><path d="M10.846 22.94c.199.422.299.856.299 1.301 0 .41-.077.697-.229.862-.152.164-.393.246-.721.246H.316A3.939 3.939 0 0 1 0 23.854c0-.316.088-.547.264-.694.175-.146.433-.22.773-.22h1.635c.058-1.5.088-5.425.088-11.777 0-3.434-.03-5.9-.088-7.4H.334a4.104 4.104 0 0 1-.299-1.477c0-.328.085-.565.255-.712.17-.146.425-.22.765-.22h9.123c3.656 0 6.266.51 7.831 1.53 1.564 1.019 2.346 2.648 2.346 4.887 0 3.093-1.916 5.238-5.748 6.433a6.055 6.055 0 0 1 2.444 1.855c.668.837 1.371 2.009 2.109 3.515.738 1.506 1.345 2.444 1.819 2.813.475.369 1.164.553 2.066.553.316 1.043.281 1.764-.106 2.163-.386.398-1.365.597-2.935.597-1.828 0-3.091-.196-3.788-.589-.697-.392-1.327-1.588-1.89-3.586-.562-1.998-1.169-3.48-1.819-4.447-.651-.967-1.544-1.45-2.681-1.45a6.71 6.71 0 0 0-1.617.176c.012 3.492.041 5.871.088 7.136h2.549ZM150.117 7.454c1.77 0 3.135.167 4.096.501.961.334 1.441.894 1.441 1.679 0 .832-.334 1.676-1.002 2.531-2.531-1.113-4.47-1.67-5.818-1.67-.715 0-1.245.135-1.591.404-.346.27-.518.657-.518 1.161 0 .527.231.984.694 1.371.463.386 1.532.879 3.208 1.476 1.957.668 3.349 1.401 4.175 2.197.826.797 1.239 1.846 1.239 3.147 0 1.758-.718 3.105-2.153 4.043-1.436.937-3.378 1.406-5.827 1.406-2.262 0-3.874-.155-4.834-.466-.961-.31-1.448-.952-1.459-1.924 0-.727.287-1.442.861-2.145 2.332.996 4.4 1.494 6.205 1.494.738 0 1.312-.123 1.723-.369.41-.246.615-.656.615-1.23 0-.668-.36-1.202-1.081-1.6-.721-.398-1.878-.902-3.472-1.512-1.711-.656-2.932-1.362-3.665-2.118-.732-.756-1.099-1.726-1.099-2.909 0-1.664.73-2.991 2.189-3.982 1.459-.99 3.483-1.485 6.073-1.485ZM55.424 23.995c-1.242.656-2.326 1.105-3.252 1.345-.926.24-1.852.36-2.777.36-1.993 0-3.528-.595-4.606-1.784-1.078-1.189-1.617-3.249-1.617-6.179 0-3.492.817-6.079 2.452-7.76 1.635-1.682 3.858-2.523 6.671-2.523.516 0 .926.012 1.23.035.305.024.639.053 1.002.088 0-.457-.023-1.031-.07-1.723a9.878 9.878 0 0 0-.264-1.784c-.129-.498-.354-.82-.676-.966-.323-.147-.742-.22-1.257-.22a3.563 3.563 0 0 1-.317-1.442c0-.492.185-.805.554-.94C52.866.367 54.047.3 56.039.3c1.242 0 2.092.05 2.549.149.457.1.718.284.782.554.065.269.097.65.097 1.143v12.462c0 4.102.111 6.542.334 7.322.222.779.592 1.116 1.107 1.01.235.34.352.68.352 1.02 0 .434-.507.832-1.521 1.195-1.013.364-1.819.545-2.417.545-.363 0-.659-.094-.887-.281-.229-.188-.566-.662-1.011-1.424Zm50.625-22.641c.211.434.316.868.316 1.301 0 .422-.076.712-.228.87-.153.159-.399.238-.739.238h-.843c-.657 2.496-1.594 6.316-2.813 11.461-1.219 5.144-2.086 8.173-2.601 9.088-.516.914-1.653 1.371-3.411 1.371-2.074 0-3.213-.065-3.418-.194-.206-.129-.774-3.032-1.706-8.71-.931-5.677-1.426-8.516-1.485-8.516-.059 0-.53 2.446-1.415 7.339-.885 4.892-1.585 7.795-2.101 8.71-.515.914-1.652 1.371-3.41 1.371-1.863 0-2.894-.065-3.093-.194-.2-.129-.976-3.149-2.33-9.061-1.353-5.912-2.434-10.134-3.243-12.665h-1.476a4.104 4.104 0 0 1-.299-1.477c0-.328.088-.565.264-.712.175-.146.433-.22.773-.22h8.736c.2.434.299.868.299 1.301 0 .422-.076.712-.228.87-.153.159-.399.238-.739.238h-.861c.129 1.5.633 4.684 1.512 9.553.879 4.87 1.429 7.304 1.652 7.304.223 0 .879-3.146 1.969-9.439s1.731-9.504 1.925-9.633c.193-.129 1.538-.194 4.034-.194.879 0 1.485.173 1.819.519.334.346 1.023 3.557 2.066 9.633 1.043 6.076 1.672 9.114 1.889 9.114.217 0 .73-2.408 1.538-7.224.809-4.817 1.254-8.028 1.336-9.633h-1.476c-.211-.516-.317-1.008-.317-1.477 0-.328.088-.565.264-.712.176-.146.434-.22.773-.22h7.067Zm-72.51 6.1c2.438 0 4.207.554 5.309 1.661 1.101 1.108 1.652 2.857 1.652 5.247 0 1.184-.234 2.028-.703 2.532-.469.503-1.494.755-3.076.755h-6.539c.035 1.536.381 2.74 1.037 3.613.656.873 1.81 1.309 3.463 1.309 1.617 0 3.281-.468 4.992-1.406.609.598.914 1.242.914 1.934 0 .937-.689 1.59-2.066 1.96-1.376.369-2.991.553-4.842.553-3.188 0-5.502-.644-6.944-1.933-1.441-1.289-2.162-3.416-2.162-6.381 0-3.082.812-5.493 2.435-7.234 1.623-1.74 3.8-2.61 6.53-2.61Zm83.602 15.486c.199.387.298.821.298 1.301 0 .41-.085.697-.254.862-.17.164-.501.246-.994.246h-8.437c-.199-.493-.299-.955-.299-1.389 0-.363.082-.624.246-.782.164-.158.428-.238.791-.238h1.442c.058-1.5.087-3.099.087-4.798 0-2.59-.02-4.31-.061-5.16-.041-.849-.132-1.47-.272-1.863-.141-.392-.358-.639-.651-.738-.293-.1-.721-.15-1.283-.15a2.159 2.159 0 0 1-.299-1.142c0-.656.27-1.061.809-1.213.539-.152 1.634-.229 3.287-.229 1.242 0 2.089.047 2.54.141.451.094.709.278.773.554.065.275.097.659.097 1.151v8.649c.012 1.699.047 3.298.105 4.798h2.075Zm8.49-13.271c1.277-.797 2.505-1.362 3.682-1.696 1.178-.334 2.166-.501 2.962-.501 1.653 0 2.88.363 3.683 1.09.803.726 1.204 2.191 1.204 4.394 0 5.766.106 8.874.317 9.325.21.451.667.671 1.371.659.175.422.263.862.263 1.319 0 .422-.137.709-.413.861-.275.152-.8.229-1.573.229-1.898 0-3.1-.03-3.604-.088-.503-.059-.849-.249-1.037-.572-.187-.322-.281-.864-.281-1.626v-6.205c0-2.39-.22-3.993-.659-4.807-.44-.815-1.151-1.222-2.136-1.222-.832 0-1.488.243-1.969.73-.48.486-.72 1.503-.72 3.049v3.534c0 1.476.029 3.076.088 4.798h2.091c.2.387.299.821.299 1.301 0 .41-.085.697-.255.862-.17.164-.501.246-.993.246h-8.279c-.211-.493-.317-.955-.317-1.389 0-.363.083-.624.247-.782.164-.158.427-.238.791-.238h1.283c.058-1.933.088-3.931.088-5.994 0-3.281-.156-5.22-.466-5.818-.311-.598-.853-.897-1.626-.897a3.397 3.397 0 0 1-.317-1.406c0-.422.156-.697.466-.826.311-.129 2.247-.246 5.81-.352.058.493.058 1.166 0 2.022Zm-73.828.826c-.996 0-1.755.375-2.277 1.125-.521.75-.782 2.385-.782 4.904 0 2.063.229 3.601.686 4.615.457 1.013 1.218 1.52 2.285 1.52.656 0 1.21-.132 1.661-.395.451-.264.756-.61.914-1.037.158-.428.237-1.386.237-2.874v-7.102a7.2 7.2 0 0 0-1.265-.536 4.74 4.74 0 0 0-1.459-.22Zm-18.967 0c-.867 0-1.529.352-1.986 1.055-.457.703-.692 1.928-.704 3.674h.932c1.301 0 2.294-.038 2.98-.115.685-.076 1.087-.205 1.204-.386.117-.182.176-.484.176-.906 0-1.054-.229-1.872-.686-2.452-.457-.58-1.096-.87-1.916-.87ZM8.209 12.763h1.424c1.512 0 2.669-.284 3.471-.853.803-.568 1.205-1.473 1.205-2.716 0-1.605-.396-2.751-1.187-3.436-.791-.686-1.796-1.029-3.015-1.029-.738 0-1.341.059-1.81.176-.059.739-.088 2.83-.088 6.276v1.582ZM111.85 5.362c-1.055 0-1.817-.202-2.286-.606-.468-.404-.703-.976-.703-1.714 0-.773.299-1.409.897-1.907.597-.498 1.447-.747 2.549-.747 1.125 0 1.922.214 2.39.641.469.428.703.988.703 1.679 0 .762-.281 1.395-.843 1.898-.563.504-1.465.756-2.707.756Z" fill="#fff"/></svg>
