<svg viewBox="0 0 288 36" xmlns="http://www.w3.org/2000/svg" xml:space="preserve"><path d="M62.047 9.002c.001.001 0 0 0 0Zm52.907-6.578v.002c.004-.001.005-.002 0-.002m-18.197 7.668h.004-.004Zm16.979-6.599-.004.006.011-.018-.002.003-.005.009ZM26.589 25.111a8.707 8.707 0 0 0-2.927-4.926c-1.361-.905-3.371-1.725-3.724-1.734-.444-.011-3.696-1.263-4.118-1.49-.304-.163-.621.004-.938-.135l-.924-.406c-1.112-.489-2.224-.67-3.336-1.159-.518-.228-1.107-.418-1.581-.72-.485-.308-1.022-.555-1.526-.837-1.058-.592-1.981-1.609-2.329-2.794l.055.235c-.555-.984-.113-2.285.618-3.156.205-.245.53-.707.554-.732.589-.631.96-.876 1.712-1.231 1.651-.78 3.533-1.123 5.367-1.032.934.046 1.858-.102 2.779.057.75.129 1.504.26 2.226.495 1.089.355 2.387 1.249 3.351 1.851 1.051.657 1.973 2.207 2.461 3.854.061-.148.448-1.168.485-1.324.048-.201.127-1.674.089-1.845-.116-.509-.396-1.037-.357-1.556.022-.296.033-1.207.06-1.503.025-.277-1.142-.462-1.455-.621-1.04-.53-1.117-.937-2.3-1.064-.047-.005-.179-.062-.268-.072-.345-.04-1.891-.577-2.051-.589-2.156-.16-4.203-.842-6.334-.146l-.087-.166c-.356.108-.74.13-1.107.064-.085-.016-.171-.036-.257-.027-.069.006-.134.031-.198.055l-.892.338c.041.053.131-.033.098-.091-.033-.058-.113-.068-.182-.071-.616-.023-1.235.349-1.831.501l.254-.017c-.217.101-2.424.675-2.46.637l.115.122c-1.079.434-2.196 1.443-3.006 2.252l-.617.616c-.397.397-.491.798-.795 1.266-.761 1.168-.844 2.321-.761 3.699.744.697.458 2.467 1.727 3.27-.031-.073-.092.069-.038.128.346.38.74.717 1.148 1.034 1.725 1.346 3.719 2.982 5.841 3.607.199.059.4.115.606.145.28.042.568.037.842.106.218.054.421.152.622.25 1.815.881 6.352 2.007 6.533 2.241l.332.415c.173.217 2.787.839 2.908 1.086.182.371.717 1.021 1.008 1.323-.105-.057-.847-.114-.952-.171.226.37.354.855.514 1.257.769 1.942-.325 4.039-1.357 4.831-.175.135-4.24 1.411-4.24 1.411-.239.062-.495.071-.736.115-.407.074-2.469.158-2.517.154-.51-.043-1.024-.03-1.536-.026-.662.004-2.165-.866-2.47-.949-.33-.089-.976-.148-1.298-.265-.556-.203-1.035-.873-1.586-1.089-.178-.069-2.23-1.494-2.619-2.017-.343-.462-1.467-2.419-1.505-2.466-.038-.046-.626-1.237-.658-1.168-.513 1.107-1.025 3.496-.988 3.96.01.114-.042.651-.032.72.061.392.264 1.509.272 1.621.009.138.119 1.075.249 1.156a.397.397 0 0 0 .07-.025c.019-.004 1.674.965 1.752 1.06l.063.045c.255.196 3.545 1.686 5.295 1.969.215.036.436.068.66.097a57.98 57.98 0 0 0 1.729.198l.019.002.068.006c.731.072 1.508.131 2.304.168.321.03.643.056.966.076 1.535.096 3.122-.255 4.602-.668 1.013-.19 2.617-.495 3.532-.96.139-.071.278-.147.386-.257.111-.115 2.08-1.182 2.165-1.316.223-.346.282-.579.557-.888 2.068-2.324 1.681-2.575 1.895-3.572a7.812 7.812 0 0 0 .004-3.212m-4.468 7.894.001-.001-.001.001Zm11.725 2.711.001-.006-.001.006m11.376-.673c-.391-.468-1.483-1.089-1.658-1.188-.176-.099-.357-.193-.512-.319-.209-.17-.364-.391-.534-.596-.166-.202-.35-.391-.498-.604-.299-.431-.441-.944-.518-1.455-.111-.736-.097-1.482-.082-2.225.063-3.195.562-6.397-.002-9.563.03-.343.069-.685.122-1.026.157-1.018.382-2.031.431-3.061.038-.812-.03-1.869.001-2.709.107-1.359-.046-2.443.017-3.862.062.013.085-.188.102-.421-.18-.438.196-1.63.221-1.691.04-.095-.01-.263.036-.378.063-.159.203-.303.312-.436.235-.288.169-.251.426-.522.28-.294.031-.618.31-.912-.02.029.166.394.146.423.111-.085.265-.307.339-.423-.04-.055.564-.855.564-.88-.318-.046-1.02.027-1.35.025a10.291 10.291 0 0 1-1.164-.075c-.113-.013-.226-.029-.34-.034-.376-.015-.744.089-1.118.132-.726.082-1.47-.072-2.189.055-.03.031-.336-.052-.381-.049l-1.288.088-2.516.171c-.624.043-.421.458-.062.729.166.125.356.227.547.312.078.035.678.361.64.315.911.857 1.567 1.745 1.61 2.203.031-.001.006.56-.022.57-.029.011-.034.354-.034.383-.024 1.024-.046 1.741-.076 2.765.046-.003.006 1.454-.036 1.471-.042.017-.041 3.347-.042 2.967.034.331.343 2.576.343 2.834.001.56.13 1.191.493 1.633-.045.01-.414.328-.459.338.052.328-.086 1.261-.056 1.55.037.366.077.424.088.792.013.421.008.84-.007 1.26l.061.031s.039.095.037.133c-.081.172-.187.332-.245.514-.132.413-.114.893-.149 1.321-.037.462-.07.924-.094 1.386a19.31 19.31 0 0 0 .037 2.805c.041.424.132.852.112 1.279-.012.258.22.476.103.689l-.004.015c-.085.16-.18.316-.262.485-.22.452-.267 1.871-.311 2.362l-.162-.91-.104-.951c-.086.007-.061.106-.164.242-.446.592-1.198 1.037-1.781 1.502-.227.181-.455.364-.707.512-.195.114-.626.506-.637.506-.006.004-.034.001-.048.001 0 0-.013-.001-.015.001 0 0-.007.003-.01.006 0 .001-.106.101-.107.139.311.016.796.077 1.014-.001-.031-.018.262-.03.282-.031.02-.001.039-.024.027-.039.006.068.424.088.497.089.405.003.74-.083.769-.085 1.398-.021 3.106.042 4.502.111-.018-.042.842-.067 1.024-.028-.015-.04.238-.606.259-.569.02.038.397.656.441.656 1.445-.012 2.243-.102 3.678-.27.067-.008.138-.016.195-.052.156-.095.11-.254-.042-.436m58.179-28.95v.001-.001l-.001-.002.001.002m2.518-3.077c-.381-.271-1.569-.034-1.916-.02l-6.354.253c-.72.028-1.394.001-2.103-.118-.415-.07-1.142-.211-1.141.453 0 .307 1.303.915 1.569 1.138.62.52 1.156 1.002 1.584 1.691.044.071.206.084.158.152.055 1.125.417 2.222.61 3.261-.031-.135-.301-.349-.332-.483a21.318 21.318 0 0 1-.162 2.55c-.069.02.187.104.033.259-.051.052.006.393 0 .465-.086 1.095-.098 2.384-.11 2.245.436 2.267.654 4.725.466 7.005-.167 2.034-.375 4.072-.324 6.116.023.93-.313 1.947-.375 2.86-.05.758-.552 1.452-.798 2.152-.073.206-.147.415-.268.596-.254.378-.711.63-.823 1.073-.026.102-.114.246-.191.174.08.034-.439.373-.431.424 1.602-.014 3.214.172 4.826.142-.143-.096-.407-.633-.584-.654 1.051.126 1.505.627 2.565.617-.027-.05 1.183-.105 1.174-.161.061.001.585.09.588.091l1.236.055c.488-.048.102-.466-.08-.72.08-.101-.687-.756-.962-1.021-.293-.284-.281-.57-.524-.898-.582-.786-.435-1.746-.518-2.696-.009-.076-.012-.153-.015-.229.053-.391.088-2.838.093-2.869a.242.242 0 0 0-.021-.144c-.02-.467-.073-.911-.093-1.335l.025-.009-.061-.407-.003-.026-.006-.049c-.004-.026-.003-.066-.005-.08 0 0-.08-.832-.022-1.152 0 0-.059-.907-.051-.998-.016-.069-.028-.49-.038-.615-.016-.399-.353-1.418-.396-1.814.023.129.712 1.137.688 1.008-.201-1.08-.216-3.239-.21-3.841.011-1.087.006-.003.006-1.09.01-1.976.295-3.943.334-5.924.022-1.145.008-2.303.26-3.42.253-1.116.809-2.211 1.746-2.855.282-.194.979-.468 1.063-.84.033-.144-.012-.244-.107-.312m33.463 24.852c-.214-.072-.514.335-.606.47-.678.989-1.69 1.713-2.782 2.209-2.073.94-4.25.62-6.407 1.173-.288.074-.568.183-.861.232-.326.053-.659.03-.988.007-.833-.059-1.667.189-2.5.13-.657-.046-.613.198-.708.727l-.212-.333-.012.039-.055-.145c-.396-.193-.617-.73-1.068-.782-.122-.014-.247-.295-.368-.316-.213-.036-.208.013-.349-.085-.047-.033-.569-.404-.39.046-.232-.093-.177-.434-.278-.663-.039-.089-.105-.163-.159-.244-.435-.654-.118-1.711-.243-2.462-.189-1.143-.081-1.975-.056-3.139.018-.817.113-1.629.217-2.439a43.967 43.967 0 0 1-.029-.379l-.002-.132.001-.05.018-.105s-.148-3.892-.127-4.333a24.297 24.297 0 0 0-.099-.771c-.048-.33.229-.661.209-.991-.069-.205-.088-.496-.082-.839l.035-.257.016-.217c.086-1.125.029-2.221.168-3.344.033-.275.068-.552.055-.829-.018-.385-.126-.76-.253-1.125.085-.004.326-.564.335-.633.04.092.059.054.078-.04-.05-.318-.114-.646.081-1.526 0 0 .336-1.206.726-1.785.392-.582.966-1.144 1.185-1.819-.445-.186-1.192-.066-1.695-.069-.313-.002-.626-.004-.936.036-.743.095-1.783.325-2.535.343-1.086.026-2.104-.387-3.178-.428-.337-.013-1.71-.048-1.67.347.023.223.804.781.973.969.339.376.652.777.934 1.198a20.364 20.364 0 0 1-.23-.073l.458 1.466c.153.488.306 1.285.414 1.785.449 2.076.112 4.204.147 6.303.053 3.228.103 4.546.187 7.746.009.352.018.705-.004 1.056-.02.312-.065.622-.092.933-.08.924.056 2.761.079 3.684.022.925-.109 1.869-.286 2.777a5.312 5.312 0 0 1-.281 1.016c-.336.814-1.008 2.074-1.776 2.506-.239.134-.331.382-.132.53.12.09 1.168-.054 1.382-.05.52.011 1.041.022 1.559-.017.347-.027.691-.075 1.035-.124.426-.06 1.799-.396 2.116-.146-.039.07-.377.109-.542.141-.084.016-.169.04-.207.056-.046.018-.043.04.043.064a9.62 9.62 0 0 1 .384-.03c.537-.031 1.166.137 1.741.113.822-.035 1.636-.183 2.459-.186.413-.002.825.033 1.236.062a45.394 45.394 0 0 0 5.45.054c.52-.027 1.095.118 1.596.037.039-.006.077-.015.114-.025.888.02 1.775.057 2.662.118a1.489 1.489 0 0 1 .453.056c.457.012.906-.221 1.231-.047.077-.153.157-.321.239-.5a.222.222 0 0 0 .052-.117c.574-1.287 1.043-2.623 1.487-3.959.2-.6.393-1.51.571-2.117.033-.114.241-.589.16-.692a.197.197 0 0 0-.088-.066m-80.854 3.36.004.002.013.009-.017-.011m28.739-13.33-.207-.009a222.23 222.23 0 0 0-5.416-.145c.121.032-4.123-.122-5.718-.068-1.654.057-3.264.59-4.89.867l-2.408.416-.644.109c.222.061.443.121.664.183.381.078.176-.024.039-.092.408.202 2.945.799 3.372.857.653.088 4.681 1.247 6.491 1.426.077.007.176-.098.1-.108.188.026.548.419.754.513.278.127.583.205.88.271l-.014.047.047.017-.183.586c.021.097.033.196.035.296l.012.031c.018.046.175.795.2.998.099.813.063 2.023.04 2.743-.026.721-.248 2.359-.368 2.629a4.081 4.081 0 0 1-.203.394c-.039.065-.082.13-.133.196a.954.954 0 0 1-.155.16c-.224.324-.543.555-.84.716-.315.171-.603.294-.854.456a.116.116 0 0 1-.021.009l.034-.02a2.3 2.3 0 0 1-.587.219c-.116.03-.237.06-.348.099-.063.02-.085.035-.197.08l-.229.084c-.632.229-1.434.451-2.265.582-.83.134-1.685.18-2.404.149-.72-.028-2.032-.04-1.788.038-.625-.087-3.292-.963-3.401-.999l-.012.001-.073-.028a20.374 20.374 0 0 0-.795-.289c-.2-.067-.345-.175-.364-.208-.017-.035-.2-.141-.643-.417-.022.008-2.213-1.467-2.213-1.467-1.663-1.381-2.762-3.325-3.406-5.376a17.815 17.815 0 0 1-.785-4.441c-.081-1.584-.062-3.213.37-4.75l-.001.552c.145-.498.27-1.001.373-1.509-.012.052 1.981-3.765 2.204-3.984.284-.318.595-.629.914-.925l.005-.02.006-.017a.835.835 0 0 1 .028-.072l.027-.055s4.03-2.287 4.075-2.303c.179-.059.35-.105.504-.146.079-.023 2.054-.346 2.397-.497.346-.151.736-.162 1.107-.17l1.433-.032c.262-.005.526-.011.785.031.255.041 3.824-.356 7.143 1.922 1.615 1.108 1.75.487 2.988 2.911.065.128.8 1.594.823 1.63.106.17.357.391.33.367-.003.021.622-1.337.655-1.589.067-.514.382-3.742.04-4.953-.035-.123-.14-.124-.208-.208-.08-.098-.715-.207-.782-.313-.088-.14-.275-.167-.435-.209-.557-.149-3.052-1.577-3.572-1.608-.371-.021-.838.016-1.193-.11-.388-.137-.713-.331-1.043-.504l-1.337-.137-1.285-.155c-.031.007-3.141-.107-3.497-.05-.137.023-.279.047-.425.076-.673.13-1.388.144-2.068.214-1.217.125-2.422.342-3.634.522-.044.007-.095.019-.113.059-.018.041.047.093.069.054-.127.225-1.614.493-1.913.61-.689.269-1.36.587-2.004.951a22.394 22.394 0 0 0-3.523 2.49c-.791.68-2.421 2.276-2.468 2.327-.593.637-2.136 4.121-2.156 4.169-.574 1.348-.686 2.745-.792 4.187l-.005.02-.013.044-.007.022-.004.011s-.005 1.782-.055 2.194c.009.117 1.086 4.48 1.126 4.574.039.087 1.203 2.199 1.267 2.371l.012.019c.04.063 1.497 1.511 1.568 1.597l-.008.031c.22.246.446.482.684.756.424.49 1.033.762 1.489 1.236-.051-.027.426.578.497.616.188.1 1.526.872 2.129 1.165l.613.298c1.094.532 3.928 2.063 4.537 2.125.458.046.919.07 1.38.071.512.171 4.81.6 5.554.564l.257-.009.254-.02.51-.04c.341-.021.676-.072 1.008-.113.166-.023 3.253-.543 3.587-.611a.636.636 0 0 0 .073-.016c.092-.019 2.42-.728 3.357-1.106a41.837 41.837 0 0 0 1.324-.593c.25-.126.724-.392.77-.416.033-.017.932-.759 1.044-.854.1-.106.206-.2.289-.305.358-.409.559-.858.588-1.323l.002-.012v-.005c.05-.381.046-.795.043-1.235a58.818 58.818 0 0 0-.026-1.006 6.114 6.114 0 0 0-.036-1.905.412.412 0 0 0 .009-.102 11.965 11.965 0 0 1 .028-2.255c.075-.7.187-1.317.364-1.789.011.055.098-.135.307-.29l.019-.014.01.008c.029.018.074-.003.107-.041.278-.317.733-3.908.417-3.923" fill="#fff"/><path d="m82.096 11.625-.003.005v.002l.003-.007Z" fill="#fff"/><path d="M174.187 36c-4.59 0-8.247-1.482-10.972-4.446-2.725-2.964-4.088-6.917-4.088-11.857 0-5.004 1.363-8.98 4.088-11.928 2.725-2.948 6.382-4.422 10.972-4.422 4.653 0 8.35 1.474 11.091 4.422 2.741 2.948 4.112 6.924 4.112 11.928 0 4.94-1.378 8.893-4.135 11.857-2.757 2.964-6.447 4.446-11.068 4.446Zm102.119-9.896c-.86 0-2.024-.032-3.49-.096.319 2.263 1.044 3.92 2.176 4.972 1.131 1.052 2.525 1.578 4.183 1.578.86 0 1.753-.223 2.677-.67.924-.446 1.61-1.083 2.056-1.912 1.562.829 2.343 1.721 2.343 2.677 0 1.084-.749 1.913-2.247 2.486-1.498.574-3.172.861-5.02.861-2.996 0-5.666-.988-8.008-2.964-2.343-1.976-3.514-4.829-3.514-8.558 0-3.92 1.123-6.924 3.37-9.012s4.901-3.131 7.96-3.131c2.455 0 4.439.669 5.953 2.008 1.514 1.338 2.27 2.932 2.27 4.781 0 1.498-.278 2.733-.836 3.705-.558.972-1.379 1.681-2.462 2.127a13.798 13.798 0 0 1-3.299.909c-1.116.159-2.486.239-4.112.239Zm-42.454-13.435c2.295 0 3.442.845 3.442 2.534 0 .191-.047.837-.143 1.936-.096 1.1-.183 2.463-.263 4.088a94.533 94.533 0 0 0-.12 4.638c0 4.27.415 7.378 1.244 9.322-.797.351-1.706.526-2.726.526-1.402 0-2.35-.287-2.844-.86-.494-.574-.741-1.546-.741-2.917 0-.51.016-1.745.048-3.705.031-1.96.047-3.466.047-4.518 0-4.621-.143-8.239-.43-10.852a15.09 15.09 0 0 1 2.486-.192ZM221.709 0c2.263 0 3.394.876 3.394 2.629 0 .192-.048.933-.143 2.224-.096 1.29-.184 3.147-.263 5.569-.08 2.423-.12 5.116-.12 8.08 0 6.12.064 10.056.191 11.809.128 1.753.495 3.346 1.1 4.781a6.836 6.836 0 0 1-2.821.621c-1.37 0-2.294-.295-2.773-.884-.478-.59-.717-1.586-.717-2.988a1375.6 1375.6 0 0 0 .096-13.196c0-9.657-.143-15.792-.43-18.406A14.23 14.23 0 0 1 221.709 0Zm-22.327 15.012c2.263-1.785 4.813-2.677 7.649-2.677 1.945 0 3.522.573 4.734 1.721 1.211 1.147 1.816 2.996 1.816 5.546 0 .35-.024 1.593-.071 3.729a232.848 232.848 0 0 0-.072 4.685c0 2.613.414 4.972 1.243 7.076-.988.414-1.881.621-2.677.621-1.307 0-2.232-.271-2.773-.813-.542-.541-.813-1.561-.813-3.059 0-1.658.032-3.658.096-6 .063-2.343.095-3.961.095-4.853 0-1.753-.35-3.06-1.052-3.92-.701-.861-1.609-1.291-2.725-1.291-1.689 0-3.442.829-5.259 2.486.064 4.271.096 7.378.096 9.323 0 3.059.096 5.673.287 7.84-.861.128-1.658.192-2.391.192-2.071 0-3.107-.638-3.107-1.913 0-.924.04-2.422.119-4.494.08-2.072.12-3.936.12-5.593 0-5.291-.303-8.765-.909-10.423a5.905 5.905 0 0 1 2.486-.526c.925 0 1.642.144 2.152.431.51.286.829.924.956 1.912Zm48.861 0c2.263-1.785 4.812-2.677 7.649-2.677 1.944 0 3.522.573 4.733 1.721 1.211 1.147 1.817 2.996 1.817 5.546 0 .35-.024 1.593-.072 3.729a232.848 232.848 0 0 0-.072 4.685c0 2.613.415 4.972 1.243 7.076-.988.414-1.88.621-2.677.621-1.307 0-2.231-.271-2.773-.813-.542-.541-.813-1.561-.813-3.059 0-1.658.032-3.658.096-6 .064-2.343.096-3.961.096-4.853 0-1.753-.351-3.06-1.052-3.92-.701-.861-1.61-1.291-2.725-1.291-1.689 0-3.442.829-5.259 2.486.064 4.271.095 7.378.095 9.323 0 3.059.096 5.673.287 7.84-.86.128-1.657.192-2.39.192-2.072 0-3.108-.638-3.108-1.913 0-.924.04-2.422.12-4.494.079-2.072.119-3.936.119-5.593 0-5.291-.302-8.765-.908-10.423a5.905 5.905 0 0 1 2.486-.526c.924 0 1.641.144 2.151.431.51.286.829.924.957 1.912ZM183.94 20.51c0-2.295-.295-4.406-.885-6.335-.589-1.928-1.641-3.585-3.155-4.972-1.514-1.386-3.386-2.079-5.618-2.079-2.964 0-5.322 1.043-7.075 3.131-1.753 2.088-2.63 4.773-2.63 8.056 0 2.39.295 4.589.885 6.597a11.423 11.423 0 0 0 3.155 5.164c1.514 1.434 3.387 2.151 5.618 2.151 3.091 0 5.482-1.084 7.171-3.251s2.534-4.988 2.534-8.462Zm94.422-4.685c-1.498 0-2.773.573-3.825 1.721-1.051 1.147-1.673 2.964-1.864 5.45 2.04 0 3.538-.048 4.494-.143 3.092-.383 4.637-1.594 4.637-3.634 0-.924-.326-1.721-.98-2.39-.653-.67-1.474-1.004-2.462-1.004Zm-44.271-5.164c-.956 0-1.769-.318-2.438-.956-.669-.637-1.004-1.45-1.004-2.438 0-.956.351-1.761 1.052-2.414a3.522 3.522 0 0 1 2.486-.98c.924 0 1.721.326 2.39.98.67.653 1.004 1.458 1.004 2.414 0 .956-.35 1.761-1.052 2.414-.701.654-1.514.98-2.438.98Z" fill="#ececec"/></svg>