<svg viewBox="0 0 116 14" xmlns="http://www.w3.org/2000/svg" xml:space="preserve"><path d="M116 13.849S107.143-4.256 90.627 1.163C82.795 3.732 85.582 6.72 66 3.402c0 0 12.053 6.653 26.119.746 3.216-2.1 7.145.352 7.113 1.772-.109 4.812-7.188 4.855-10.098 4.944 0 0 9.833 4.338 15.672-5.224 0 0 2.686-1.389 11.194 8.209Zm-116 0S8.857-4.256 25.373 1.163C33.205 3.732 30.418 6.72 50 3.402c0 0-12.053 6.653-26.119.746-3.216-2.1-7.145.352-7.113 1.772.109 4.812 7.188 4.855 10.098 4.944 0 0-9.833 4.338-15.672-5.224 0 0-2.686-1.389-11.194 8.209Z" fill="#fcfcfc" fill-opacity=".4"/></svg>